<?xml version="1.0" encoding="UTF-8" standalone="no"?>
<!-- Created with Inkscape (http://www.inkscape.org/) -->

<svg
   width="4.544467mm"
   height="5.9643564mm"
   viewBox="0 0 4.544467 5.9643564"
   version="1.1"
   id="svg1"
   inkscape:version="1.3.2 (091e20e, 2023-11-25, custom)"
   sodipodi:docname="booknav.svg"
   inkscape:export-filename="..\..\..\¤ Képek\booknav.svg"
   inkscape:export-xdpi="96"
   inkscape:export-ydpi="96"
   xmlns:inkscape="http://www.inkscape.org/namespaces/inkscape"
   xmlns:sodipodi="http://sodipodi.sourceforge.net/DTD/sodipodi-0.dtd"
   xmlns="http://www.w3.org/2000/svg"
   xmlns:svg="http://www.w3.org/2000/svg">
  <sodipodi:namedview
     id="namedview1"
     pagecolor="#ffffff"
     bordercolor="#000000"
     borderopacity="0.25"
     inkscape:showpageshadow="2"
     inkscape:pageopacity="0.0"
     inkscape:pagecheckerboard="0"
     inkscape:deskcolor="#d1d1d1"
     inkscape:document-units="mm"
     inkscape:zoom="5.6568542"
     inkscape:cx="210.45266"
     inkscape:cy="480.39067"
     inkscape:window-width="1920"
     inkscape:window-height="1017"
     inkscape:window-x="-8"
     inkscape:window-y="-8"
     inkscape:window-maximized="1"
     inkscape:current-layer="layer1" />
  <defs
     id="defs1" />
  <g
     inkscape:label="Réteg 1"
     inkscape:groupmode="layer"
     id="layer1"
     transform="translate(-39.149404,-112.66322)">
    <path
       d="m 43.582181,116.75357 c 0,0.28473 -0.05387,0.53612 -0.161608,0.75417 -0.107736,0.21804 -0.252673,0.3976 -0.434802,0.53869 -0.215477,0.1693 -0.452759,0.28986 -0.711845,0.36169 -0.25652,0.0718 -0.583584,0.10777 -0.981191,0.10777 h -2.031642 v -5.72938 h 1.696884 c 0.418128,0 0.731082,0.0154 0.938864,0.0462 0.207781,0.0309 0.406584,0.0949 0.59641,0.19239 0.210348,0.11035 0.362977,0.25266 0.457889,0.4271 0.09492,0.17186 0.142369,0.37837 0.142369,0.61949 0,0.27193 -0.06926,0.50407 -0.207782,0.69647 -0.13852,0.18981 -0.323215,0.34244 -0.554083,0.45788 v 0.0309 c 0.387346,0.0796 0.692605,0.25009 0.915778,0.51175 0.223172,0.25908 0.334759,0.58744 0.334759,0.98505 z m -1.281319,-2.58189 c 0,-0.13853 -0.02308,-0.25524 -0.06925,-0.35015 -0.04617,-0.0949 -0.120564,-0.17186 -0.223175,-0.23086 -0.120564,-0.0692 -0.266781,-0.11158 -0.438649,-0.12698 -0.171869,-0.018 -0.384781,-0.0269 -0.638737,-0.0269 h -0.908082 v 1.65457 h 0.985039 c 0.238565,0 0.428389,-0.0114 0.569475,-0.0346 0.141087,-0.0256 0.271912,-0.0769 0.392476,-0.15389 0.120566,-0.0769 0.205218,-0.17574 0.253956,-0.29631 0.05129,-0.12313 0.07695,-0.26805 0.07695,-0.4348 z m 0.488671,2.61267 c 0,-0.23087 -0.03463,-0.41428 -0.103894,-0.55025 -0.06927,-0.13596 -0.194957,-0.25138 -0.377085,-0.34629 -0.123129,-0.0641 -0.273194,-0.1051 -0.450193,-0.12313 -0.174434,-0.0206 -0.387346,-0.0309 -0.638737,-0.0309 h -1.196668 v 2.13167 h 1.008126 c 0.333475,0 0.606671,-0.0167 0.819583,-0.0501 0.212912,-0.0358 0.387346,-0.10002 0.523302,-0.19238 0.14365,-0.10012 0.248825,-0.21421 0.31552,-0.34246 0.06669,-0.12826 0.10004,-0.29371 0.10004,-0.49637 z"
       style="font-size:7.05556px;-inkscape-font-specification:sans-serif;word-spacing:0px;fill:#5c6e82;fill-opacity:1;stroke:#5c6e82;stroke-width:0.223379;stroke-linecap:round;stroke-dasharray:none;stroke-opacity:1"
       id="path1" />
    <rect
       style="fill:#7fb2d7;fill-opacity:1;stroke:none;stroke-width:0.104;stroke-linecap:round"
       id="rect1"
       width="0.98989612"
       height="5.9643564"
       x="39.151405"
       y="112.66322" />
    <path
       id="path2"
       style="fill:#4b6587;fill-opacity:1;stroke:#dbc69b;stroke-width:0.08;stroke-linecap:round;stroke-dasharray:none;stroke-opacity:1"
       d="m 42.514593,115.22391 -0.556365,0.61882 -0.730615,-0.34438 0.564812,-0.57602 z"
       sodipodi:nodetypes="ccccc" />
    <path
       id="rect2"
       style="fill:#4b6587;fill-opacity:1;stroke-width:0.104;stroke-linecap:round"
       d="m 40.1413,114.98051 h 0.927766 c 0.117078,-0.004 0.226943,-0.006 0.365938,-0.0175 0.133268,-0.01 0.248352,-0.0413 0.348555,-0.0899 l 0.183439,1.0183 c -0.241111,-0.0304 -0.472001,-0.0468 -0.691066,-0.047 l -1.134632,0.0402 z"
       sodipodi:nodetypes="cccccccc" />
  </g>
</svg>
