<?xml version="1.0" encoding="UTF-8" standalone="no"?>
<!-- Created with Inkscape (http://www.inkscape.org/) -->

<svg
   width="33.998959mm"
   height="8.4005213mm"
   viewBox="0 0 33.998959 8.4005213"
   version="1.1"
   id="svg1"
   inkscape:version="1.3.2 (091e20e, 2023-11-25, custom)"
   sodipodi:docname="rajz.svg"
   inkscape:export-filename="..\..\..\¤ Képek\booknav.svg"
   inkscape:export-xdpi="96"
   inkscape:export-ydpi="96"
   xmlns:inkscape="http://www.inkscape.org/namespaces/inkscape"
   xmlns:sodipodi="http://sodipodi.sourceforge.net/DTD/sodipodi-0.dtd"
   xmlns="http://www.w3.org/2000/svg"
   xmlns:svg="http://www.w3.org/2000/svg">
  <sodipodi:namedview
     id="namedview1"
     pagecolor="#ffffff"
     bordercolor="#000000"
     borderopacity="0.25"
     inkscape:showpageshadow="2"
     inkscape:pageopacity="0.0"
     inkscape:pagecheckerboard="0"
     inkscape:deskcolor="#d1d1d1"
     inkscape:document-units="mm"
     inkscape:zoom="5.6568542"
     inkscape:cx="210.45266"
     inkscape:cy="480.39067"
     inkscape:window-width="1920"
     inkscape:window-height="1017"
     inkscape:window-x="-8"
     inkscape:window-y="-8"
     inkscape:window-maximized="1"
     inkscape:current-layer="layer1" />
  <defs
     id="defs1" />
  <g
     inkscape:label="Réteg 1"
     inkscape:groupmode="layer"
     id="layer1"
     transform="translate(-36.719254,-120.53263)">
    <rect
       style="fill:none;fill-opacity:1;stroke:none;stroke-width:0.12;stroke-linecap:round;stroke-dasharray:none;stroke-opacity:1"
       id="rect3-1"
       width="33.998959"
       height="8.4005203"
       x="36.719254"
       y="120.53262" />
    <rect
       style="fill:#7fb2d7;fill-opacity:1;stroke:none;stroke-width:0.179187;stroke-linecap:round;stroke-opacity:1"
       id="rect1-8-2"
       width="10.600824"
       height="0.85844725"
       x="58.369476"
       y="126.74523" />
    <path
       d="m 68.750812,123.06123 -1.308905,3.41956 c -0.184004,0.0328 -0.363191,0.0464 -0.527101,0 l -1.350976,-3.41956 c 0,0 0.428861,0.19144 0.597367,0 0.156636,-0.17796 0.927907,1.70034 1.032682,2.65333 l 1.023729,-2.65333 z"
       style="font-size:7.05556px;-inkscape-font-specification:sans-serif;word-spacing:0px;fill:#f0e5cf;fill-opacity:1;stroke:#dbc69b;stroke-width:0.104;stroke-linecap:round;stroke-dasharray:none;stroke-opacity:1"
       id="path1-4-2-5"
       sodipodi:nodetypes="ccccsccc" />
    <path
       style="font-size:7.05556px;-inkscape-font-specification:sans-serif;word-spacing:0px;fill:#4b6587;fill-opacity:1;stroke:#4b6587;stroke-width:0.173268;stroke-linecap:round;stroke-dasharray:none;stroke-opacity:1"
       d="m 61.211453,126.48079 h -0.561111 v -1.89823 c 0,-0.15321 -0.009,-0.29647 -0.02687,-0.42978 -0.01791,-0.1353 -0.05074,-0.24076 -0.09849,-0.31637 -0.04975,-0.0836 -0.121377,-0.14526 -0.214894,-0.18505 -0.09352,-0.0418 -0.214893,-0.0627 -0.364125,-0.0627 -0.153211,0 -0.313387,0.0378 -0.480526,0.11342 -0.167139,0.0756 -0.327314,0.17211 -0.480525,0.2895 v 2.48918 h -0.561107 v -3.33382 h 0.56111 v 0.37009 c 0.175099,-0.14525 0.356166,-0.25867 0.543203,-0.34025 0.187037,-0.0816 0.379048,-0.12237 0.576034,-0.12237 0.360146,0 0.634732,0.10844 0.823758,0.32533 0.189026,0.21688 0.28354,0.52927 0.28354,0.93717 z m 3.671096,0 h -0.558125 v -0.35517 c -0.04975,0.0339 -0.117397,0.0816 -0.202956,0.14326 -0.08357,0.0597 -0.165149,0.10744 -0.244739,0.14326 -0.09352,0.0457 -0.200965,0.0835 -0.32234,0.11342 -0.121375,0.0318 -0.263642,0.0477 -0.426802,0.0477 -0.300453,0 -0.555141,-0.0995 -0.764066,-0.29847 -0.208924,-0.19897 -0.313386,-0.45267 -0.313386,-0.76108 0,-0.2527 0.05372,-0.45665 0.16117,-0.61184 0.109436,-0.1572 0.264637,-0.28057 0.465602,-0.3701 0.202956,-0.0895 0.4467,-0.15023 0.731235,-0.18207 0.284535,-0.0318 0.589962,-0.0557 0.916282,-0.0716 v -0.0866 c 0,-0.12734 -0.02288,-0.23279 -0.06865,-0.31637 -0.04378,-0.0836 -0.107446,-0.14923 -0.191016,-0.19698 -0.07959,-0.0457 -0.175099,-0.0766 -0.286525,-0.0925 -0.111427,-0.0159 -0.227827,-0.0239 -0.349202,-0.0239 -0.147242,0 -0.311396,0.0199 -0.492464,0.0597 -0.181068,0.0379 -0.368105,0.0935 -0.561111,0.16714 h -0.02984 v -0.57006 c 0.109437,-0.0298 0.267622,-0.0627 0.474556,-0.0985 0.206935,-0.0358 0.410884,-0.0537 0.61185,-0.0537 0.23479,0 0.43874,0.0199 0.611849,0.0597 0.175099,0.0378 0.326319,0.10347 0.453664,0.19699 0.125354,0.0915 0.220862,0.20991 0.286524,0.35517 0.06566,0.14525 0.09849,0.32532 0.09849,0.54022 z m -0.558125,-0.82077 v -0.92823 c -0.171119,0.01 -0.373079,0.0249 -0.605881,0.0448 -0.230811,0.0198 -0.413868,0.0487 -0.549172,0.0865 -0.161169,0.0457 -0.291498,0.11737 -0.390986,0.2149 -0.09949,0.0955 -0.149231,0.22782 -0.149231,0.39694 0,0.19102 0.0577,0.33528 0.173108,0.43278 0.115406,0.0955 0.291499,0.14326 0.52828,0.14326 0.196985,0 0.377058,-0.0378 0.540218,-0.11342 0.163159,-0.0776 0.314381,-0.17011 0.453664,-0.27756 z"
       id="text1-8-0"
       aria-label="Booknav"
       sodipodi:nodetypes="ccscccssccccccsssscccccccsssccscsccssccccssccssccccccscscsc" />
    <path
       style="fill:#4b6587;fill-opacity:1;stroke:none;stroke-width:0.343938;stroke-linecap:round;stroke-dasharray:none;stroke-opacity:1"
       d="m 65.299949,122.98366 1.469903,3.66817 c 0.272644,0.0451 0.534207,0.0294 0.794249,0.005 l 1.485244,-3.68154 h -0.300797 l -1.34172,3.5053 c -0.170679,0.0251 -0.270721,0.0526 -0.456943,0 l -1.384847,-3.5053 z"
       id="path3-3-5"
       sodipodi:nodetypes="ccccccccc" />
    <path
       d="m 43.259769,125.69818 c 0,0.28473 -0.05387,0.53612 -0.161608,0.75417 -0.107736,0.21804 -0.252673,0.3976 -0.434802,0.53869 -0.215477,0.1693 -0.452759,0.28986 -0.711845,0.36169 -0.25652,0.0718 -0.583584,0.10777 -0.981191,0.10777 h -2.031642 v -5.72938 h 1.696884 c 0.418128,0 0.731082,0.0154 0.938864,0.0462 0.207781,0.0309 0.406584,0.0949 0.59641,0.19239 0.210348,0.11035 0.362977,0.25266 0.457889,0.4271 0.09492,0.17186 0.142369,0.37837 0.142369,0.61949 0,0.27193 -0.06926,0.50407 -0.207782,0.69647 -0.13852,0.18981 -0.323215,0.34244 -0.554083,0.45788 v 0.0309 c 0.387346,0.0796 0.692605,0.25009 0.915778,0.51175 0.223172,0.25908 0.334759,0.58744 0.334759,0.98505 z m -1.281319,-2.58189 c 0,-0.13853 -0.02308,-0.25524 -0.06925,-0.35015 -0.04617,-0.0949 -0.120564,-0.17186 -0.223175,-0.23086 -0.120564,-0.0692 -0.266781,-0.11158 -0.438649,-0.12698 -0.171869,-0.018 -0.384781,-0.0269 -0.638737,-0.0269 h -0.908082 v 1.65457 h 0.985039 c 0.238565,0 0.428389,-0.0114 0.569475,-0.0346 0.141087,-0.0256 0.271912,-0.0769 0.392476,-0.15389 0.120566,-0.0769 0.205218,-0.17574 0.253956,-0.29631 0.05129,-0.12313 0.07695,-0.26805 0.07695,-0.4348 z m 0.488671,2.61267 c 0,-0.23087 -0.03463,-0.41428 -0.103894,-0.55025 -0.06927,-0.13596 -0.194957,-0.25138 -0.377085,-0.34629 -0.123129,-0.0641 -0.273194,-0.1051 -0.450193,-0.12313 -0.174434,-0.0206 -0.387346,-0.0309 -0.638737,-0.0309 h -1.196668 v 2.13167 h 1.008126 c 0.333475,0 0.606671,-0.0167 0.819583,-0.0501 0.212912,-0.0358 0.387346,-0.10002 0.523302,-0.19238 0.14365,-0.10012 0.248825,-0.21421 0.31552,-0.34246 0.06669,-0.12826 0.10004,-0.29371 0.10004,-0.49637 z m 5.479278,-0.41557 c 0,0.7003 -0.179564,1.2531 -0.538692,1.65839 -0.359129,0.40532 -0.840106,0.60797 -1.442928,0.60797 -0.607954,0 -1.091495,-0.20265 -1.450625,-0.60797 -0.356562,-0.40529 -0.534844,-0.95809 -0.534844,-1.65839 0,-0.70031 0.178282,-1.2531 0.534844,-1.6584 0.35913,-0.40787 0.842671,-0.61181 1.450625,-0.61181 0.602822,0 1.083799,0.20394 1.442928,0.61181 0.359128,0.4053 0.538692,0.95809 0.538692,1.6584 z m -0.746474,0 c 0,-0.55664 -0.109021,-0.96965 -0.327065,-1.23898 -0.218041,-0.27191 -0.520735,-0.40788 -0.908081,-0.40788 -0.392477,0 -0.697736,0.13597 -0.915779,0.40788 -0.215476,0.26933 -0.323215,0.68234 -0.323215,1.23898 0,0.53869 0.109019,0.94784 0.327063,1.22745 0.218043,0.27705 0.522019,0.41557 0.911931,0.41557 0.384781,0 0.686192,-0.13725 0.904235,-0.41172 0.220608,-0.27705 0.330911,-0.68747 0.330911,-1.2313 z m 5.529301,0 c 0,0.7003 -0.179564,1.2531 -0.538694,1.65839 -0.359128,0.40532 -0.840104,0.60797 -1.442928,0.60797 -0.607954,0 -1.091495,-0.20265 -1.450624,-0.60797 -0.356563,-0.40529 -0.534845,-0.95809 -0.534845,-1.65839 0,-0.70031 0.178282,-1.2531 0.534845,-1.6584 0.359129,-0.40787 0.84267,-0.61181 1.450624,-0.61181 0.602824,0 1.0838,0.20394 1.442928,0.61181 0.35913,0.4053 0.538694,0.95809 0.538694,1.6584 z m -0.746475,0 c 0,-0.55664 -0.109021,-0.96965 -0.327064,-1.23898 -0.218044,-0.27191 -0.520738,-0.40788 -0.908083,-0.40788 -0.392475,0 -0.697736,0.13597 -0.915778,0.40788 -0.215478,0.26933 -0.323216,0.68234 -0.323216,1.23898 0,0.53869 0.10902,0.94784 0.327063,1.22745 0.218043,0.27705 0.522021,0.41557 0.911931,0.41557 0.38478,0 0.686192,-0.13725 0.904235,-0.41172 0.220608,-0.27705 0.330912,-0.68747 0.330912,-1.2313 z m 5.767863,2.14707 h -0.954256 l -1.723817,-1.88157 -0.469433,0.44635 v 1.43522 H 53.87972 v -5.98718 h 0.723388 v 3.84011 l 2.089359,-2.15091 h 0.911931 l -1.997013,1.98546 z"
       style="font-size:7.05556px;-inkscape-font-specification:sans-serif;word-spacing:0px;fill:#5c6e82;fill-opacity:1;stroke:#5c6e82;stroke-width:0.223379;stroke-linecap:round;stroke-dasharray:none;stroke-opacity:1"
       id="path1-9" />
  </g>
</svg>
